<?xml version="1.0" encoding="UTF-8" standalone="no"?>
<!DOCTYPE svg PUBLIC "-//W3C//DTD SVG 20010904//EN"
              "http://www.w3.org/TR/2001/REC-SVG-20010904/DTD/svg10.dtd">

<svg xmlns="http://www.w3.org/2000/svg"
     width="1186.5mm" height="301.36mm"
     viewBox="0 0 13780 3500">
  <path id="Selection"
        fill="black" stroke="none" stroke-width="1"
        d="M 10404.00,999.00
           C 10404.00,999.00 10404.00,237.00 10404.00,237.00
             10404.03,216.18 10412.58,185.66 10421.76,167.00
             10430.83,148.55 10444.12,128.31 10459.01,114.09
             10485.65,88.66 10518.86,71.11 10555.00,64.00
             10561.01,62.82 10572.05,61.07 10578.00,61.00
             10578.00,61.00 10605.00,61.00 10605.00,61.00
             10623.94,61.23 10651.66,69.20 10669.00,76.86
             10689.14,85.76 10706.81,98.35 10723.00,113.17
             10737.94,126.85 10752.29,148.80 10761.24,167.00
             10770.42,185.66 10778.97,216.18 10779.00,237.00
             10779.00,237.00 10779.00,820.00 10779.00,820.00
             10779.00,820.00 10779.00,1987.00 10779.00,1987.00
             10779.00,1987.00 10779.00,2509.00 10779.00,2509.00
             10778.98,2520.70 10775.65,2537.67 10772.42,2549.00
             10757.14,2602.55 10720.18,2646.52 10669.00,2669.14
             10650.62,2677.26 10623.11,2684.97 10603.00,2685.00
             10603.00,2685.00 10578.00,2685.00 10578.00,2685.00
             10564.59,2684.84 10543.83,2679.94 10531.00,2675.67
             10456.74,2650.91 10404.00,2580.60 10404.00,2502.00
             10404.00,2502.00 10356.00,2535.31 10356.00,2535.31
             10320.67,2558.07 10284.02,2579.26 10246.00,2597.22
             10160.08,2637.81 10068.18,2666.02 9974.00,2679.13
             9974.00,2679.13 9907.00,2686.09 9907.00,2686.09
             9907.00,2686.09 9897.00,2687.00 9897.00,2687.00
             9897.00,2687.00 9877.00,2688.00 9877.00,2688.00
             9877.00,2688.00 9806.00,2688.00 9806.00,2688.00
             9806.00,2688.00 9786.00,2687.00 9786.00,2687.00
             9786.00,2687.00 9776.00,2686.09 9776.00,2686.09
             9746.85,2684.08 9717.88,2680.86 9689.00,2676.08
             9610.25,2663.04 9539.28,2641.91 9466.00,2610.28
             9366.81,2567.46 9275.97,2506.48 9197.00,2432.91
             9197.00,2432.91 9177.00,2413.00 9177.00,2413.00
             9124.52,2360.52 9078.01,2301.68 9039.80,2238.00
             8981.33,2140.56 8943.47,2043.39 8921.20,1932.00
             8915.77,1904.83 8911.78,1877.54 8908.84,1850.00
             8908.84,1850.00 8905.91,1816.00 8905.91,1816.00
             8905.91,1816.00 8905.00,1805.00 8905.00,1805.00
             8905.00,1805.00 8904.00,1786.00 8904.00,1786.00
             8904.00,1786.00 8904.00,1715.00 8904.00,1715.00
             8904.00,1715.00 8905.00,1695.00 8905.00,1695.00
             8905.00,1695.00 8905.91,1685.00 8905.91,1685.00
             8907.70,1658.90 8910.40,1632.89 8914.42,1607.00
             8944.56,1412.86 9035.89,1229.11 9175.00,1090.00
             9175.00,1090.00 9197.00,1068.09 9197.00,1068.09
             9269.95,1000.12 9353.27,942.35 9444.00,900.69
             9524.55,863.71 9601.50,839.41 9689.00,824.92
             9717.88,820.14 9746.85,816.92 9776.00,814.91
             9776.00,814.91 9786.00,814.00 9786.00,814.00
             9786.00,814.00 9806.00,813.00 9806.00,813.00
             9806.00,813.00 9877.00,813.00 9877.00,813.00
             9877.00,813.00 9897.00,814.00 9897.00,814.00
             9897.00,814.00 9907.00,814.91 9907.00,814.91
             9907.00,814.91 9974.00,821.87 9974.00,821.87
             10068.18,834.98 10160.08,863.19 10246.00,903.78
             10284.02,921.74 10320.67,942.93 10356.00,965.69
             10356.00,965.69 10404.00,999.00 10404.00,999.00 Z
           M 619.00,250.05
           C 619.00,250.05 650.00,250.05 650.00,250.05
             650.00,250.05 705.00,250.05 705.00,250.05
             705.00,250.05 874.00,250.05 874.00,250.05
             874.00,250.05 1391.00,250.05 1391.00,250.05
             1391.00,250.05 2323.00,250.05 2323.00,250.05
             2323.00,250.05 2686.00,250.05 2686.00,250.05
             2686.00,250.05 2868.00,250.05 2868.00,250.05
             2868.00,250.05 2882.00,251.00 2882.00,251.00
             2882.00,251.00 2886.00,251.00 2886.00,251.00
             2886.00,251.00 2926.00,256.60 2926.00,256.60
             2952.28,261.86 2978.25,269.20 3003.00,279.58
             3119.47,328.41 3204.55,423.52 3236.88,546.00
             3241.30,562.71 3248.80,597.40 3249.00,614.00
             3249.00,614.00 3250.00,634.00 3250.00,634.00
             3250.00,634.00 3250.00,2016.00 3250.00,2016.00
             3250.00,2016.00 3250.00,2525.00 3250.00,2525.00
             3250.00,2525.00 3250.00,2753.00 3250.00,2753.00
             3250.00,2753.00 3250.00,2868.00 3250.00,2868.00
             3250.00,2868.00 3249.00,2882.00 3249.00,2882.00
             3249.00,2882.00 3249.00,2886.00 3249.00,2886.00
             3249.00,2886.00 3247.13,2903.00 3247.13,2903.00
             3243.05,2932.39 3238.04,2952.88 3228.67,2981.00
             3188.85,3100.44 3094.85,3190.72 2976.00,3230.33
             2953.05,3237.98 2908.70,3248.72 2885.00,3249.00
             2885.00,3249.00 2866.00,3250.00 2866.00,3250.00
             2866.00,3250.00 1484.00,3250.00 1484.00,3250.00
             1484.00,3250.00 976.00,3250.00 976.00,3250.00
             976.00,3250.00 748.00,3250.00 748.00,3250.00
             748.00,3250.00 633.00,3250.00 633.00,3250.00
             633.00,3250.00 619.00,3249.00 619.00,3249.00
             619.00,3249.00 615.00,3249.00 615.00,3249.00
             615.00,3249.00 586.00,3245.42 586.00,3245.42
             559.65,3241.33 533.98,3234.36 509.00,3225.05
             387.38,3179.71 296.26,3079.53 263.12,2954.00
             258.70,2937.29 251.20,2902.60 251.00,2886.00
             251.00,2886.00 250.00,2866.00 250.00,2866.00
             250.00,2866.00 250.00,1428.00 250.00,1428.00
             250.00,1428.00 250.00,898.00 250.00,898.00
             250.00,898.00 250.00,721.00 250.00,721.00
             250.00,721.00 250.00,632.00 250.00,632.00
             250.00,632.00 251.00,614.00 251.00,614.00
             251.22,595.34 259.94,556.60 265.29,538.00
             297.62,425.55 376.64,334.14 483.00,285.31
             514.46,270.86 551.81,259.93 586.00,254.44
             586.00,254.44 619.00,250.05 619.00,250.05 Z
           M 7173.00,810.14
           C 7173.00,810.14 7204.00,810.14 7204.00,810.14
             7204.00,810.14 7252.00,810.14 7252.00,810.14
             7252.00,810.14 7272.00,811.00 7272.00,811.00
             7272.00,811.00 7282.00,811.91 7282.00,811.91
             7282.00,811.91 7325.00,815.84 7325.00,815.84
             7370.03,820.65 7417.29,830.01 7461.00,841.85
             7612.23,882.80 7746.36,958.28 7861.00,1065.09
             7861.00,1065.09 7882.00,1086.00 7882.00,1086.00
             7987.21,1191.21 8066.85,1322.89 8111.02,1465.00
             8128.64,1521.68 8141.85,1579.93 8148.16,1639.00
             8148.16,1639.00 8152.09,1682.00 8152.09,1682.00
             8152.09,1682.00 8153.00,1692.00 8153.00,1692.00
             8153.00,1692.00 8154.00,1712.00 8154.00,1712.00
             8154.00,1712.00 8154.00,1785.00 8154.00,1785.00
             8154.00,1785.00 8153.00,1803.00 8153.00,1803.00
             8153.00,1803.00 8152.09,1813.00 8152.09,1813.00
             8152.09,1813.00 8145.27,1879.00 8145.27,1879.00
             8136.76,1938.04 8123.23,1996.61 8103.66,2053.00
             8059.45,2180.39 7990.83,2293.34 7898.91,2392.00
             7898.91,2392.00 7878.00,2413.00 7878.00,2413.00
             7770.25,2520.75 7634.91,2601.34 7489.00,2645.28
             7437.03,2660.93 7378.97,2673.39 7325.00,2679.16
             7325.00,2679.16 7282.00,2683.09 7282.00,2683.09
             7282.00,2683.09 7272.00,2684.00 7272.00,2684.00
             7272.00,2684.00 7252.00,2685.00 7252.00,2685.00
             7252.00,2685.00 7181.00,2685.00 7181.00,2685.00
             7181.00,2685.00 7161.00,2684.00 7161.00,2684.00
             7161.00,2684.00 7151.00,2683.09 7151.00,2683.09
             7151.00,2683.09 7085.00,2676.27 7085.00,2676.27
             7022.61,2667.28 6962.40,2652.83 6903.00,2631.69
             6778.29,2587.31 6668.88,2520.17 6572.00,2429.91
             6572.00,2429.91 6527.91,2385.00 6527.91,2385.00
             6415.07,2263.68 6336.14,2111.70 6300.42,1950.00
             6259.63,1765.27 6276.09,1563.76 6349.42,1389.00
             6394.87,1280.70 6453.93,1189.04 6534.09,1103.00
             6534.09,1103.00 6579.00,1058.91 6579.00,1058.91
             6674.45,970.13 6787.96,903.04 6911.00,860.34
             6970.43,839.72 7032.65,825.49 7095.00,817.28
             7095.00,817.28 7145.00,812.09 7145.00,812.09
             7145.00,812.09 7159.00,811.04 7159.00,811.04
             7159.00,811.04 7173.00,810.14 7173.00,810.14 Z
           M 2304.00,812.28
           C 2284.93,815.04 2271.88,816.02 2253.00,822.03
             2222.75,831.65 2194.39,850.50 2173.17,874.00
             2150.33,899.29 2136.06,928.71 2129.40,962.00
             2127.67,970.67 2126.01,981.20 2126.00,990.00
             2126.00,990.00 2126.00,1011.00 2126.00,1011.00
             2126.11,1020.25 2128.85,1035.88 2131.13,1045.00
             2140.64,1083.08 2158.66,1113.52 2188.00,1139.83
             2215.92,1164.87 2254.89,1181.15 2292.00,1185.71
             2292.00,1185.71 2307.00,1186.82 2307.00,1186.82
             2307.00,1186.82 2323.00,1186.00 2323.00,1186.00
             2337.64,1185.93 2359.04,1181.30 2373.00,1176.67
             2394.90,1169.39 2415.25,1157.84 2433.00,1143.08
             2511.93,1077.44 2522.11,954.49 2454.71,877.00
             2433.21,852.28 2405.80,834.21 2375.00,823.31
             2355.96,816.57 2324.03,810.42 2304.00,812.28 Z
           M 1168.00,814.14
           C 1140.94,818.19 1120.40,823.08 1096.00,836.31
             1052.49,859.89 1019.98,901.51 1006.43,949.00
             1003.01,960.98 1000.02,979.58 1000.00,992.00
             1000.00,992.00 999.00,1007.00 999.00,1007.00
             999.00,1007.00 999.00,1151.00 999.00,1151.00
             999.00,1151.00 999.00,1439.00 999.00,1439.00
             999.00,1439.00 999.00,2303.00 999.00,2303.00
             999.00,2303.00 999.00,2437.00 999.00,2437.00
             999.00,2437.00 999.00,2498.00 999.00,2498.00
             999.00,2498.00 1000.04,2510.00 1000.04,2510.00
             1000.04,2510.00 1000.04,2519.00 1000.04,2519.00
             1005.40,2573.75 1036.19,2625.64 1082.00,2656.00
             1095.11,2664.68 1113.02,2673.41 1128.00,2678.26
             1143.42,2683.25 1158.89,2685.98 1175.00,2687.09
             1178.88,2687.35 1180.71,2688.15 1185.00,2687.91
             1185.00,2687.91 1200.00,2687.00 1200.00,2687.00
             1212.98,2686.84 1230.53,2682.55 1243.00,2678.72
             1292.95,2663.37 1335.93,2625.98 1357.14,2578.00
             1365.55,2558.97 1372.75,2532.87 1373.00,2512.00
             1373.00,2512.00 1374.00,2493.00 1374.00,2493.00
             1374.00,2493.00 1374.00,1185.00 1374.00,1185.00
             1374.00,1185.00 1374.00,1060.00 1374.00,1060.00
             1374.00,1029.11 1375.70,997.52 1370.57,967.00
             1362.94,921.62 1337.03,880.24 1301.00,852.01
             1288.09,841.90 1273.22,833.49 1258.00,827.40
             1239.97,820.19 1215.45,814.03 1196.00,814.14
             1196.00,814.14 1168.00,814.14 1168.00,814.14 Z
           M 4769.00,813.14
           C 4769.00,813.14 4817.00,813.14 4817.00,813.14
             4817.00,813.14 4848.00,813.14 4848.00,813.14
             4848.00,813.14 4863.00,814.00 4863.00,814.00
             4886.16,814.27 4921.55,818.61 4945.00,821.87
             5089.56,841.99 5228.09,896.95 5348.00,979.98
             5390.78,1009.60 5440.12,1049.53 5475.96,1087.00
             5491.54,1103.29 5505.01,1122.34 5514.14,1143.00
             5542.28,1206.66 5533.43,1282.03 5490.58,1337.00
             5478.54,1352.44 5465.17,1364.93 5449.00,1375.97
             5423.79,1393.19 5384.78,1407.95 5354.00,1408.00
             5354.00,1408.00 5329.00,1408.00 5329.00,1408.00
             5323.05,1407.93 5312.01,1406.18 5306.00,1405.00
             5275.03,1398.90 5247.56,1386.05 5223.00,1366.20
             5223.00,1366.20 5209.04,1353.96 5209.04,1353.96
             5209.04,1353.96 5199.99,1344.01 5199.99,1344.01
             5199.99,1344.01 5185.00,1330.28 5185.00,1330.28
             5160.48,1308.72 5138.40,1292.33 5111.00,1274.69
             5054.39,1238.25 4986.92,1212.38 4921.00,1199.20
             4897.16,1194.43 4873.21,1191.57 4849.00,1189.91
             4849.00,1189.91 4837.00,1189.00 4837.00,1189.00
             4837.00,1189.00 4786.00,1189.00 4786.00,1189.00
             4786.00,1189.00 4776.00,1189.91 4776.00,1189.91
             4776.00,1189.91 4730.00,1194.73 4730.00,1194.73
             4677.66,1202.27 4627.04,1217.69 4579.00,1239.69
             4512.24,1270.26 4457.26,1310.49 4406.01,1363.00
             4367.70,1402.27 4334.27,1450.96 4309.75,1500.00
             4283.50,1552.51 4265.11,1609.85 4256.73,1668.00
             4256.73,1668.00 4251.91,1714.00 4251.91,1714.00
             4251.91,1714.00 4251.00,1726.00 4251.00,1726.00
             4251.00,1726.00 4251.00,1777.00 4251.00,1777.00
             4251.00,1777.00 4251.91,1787.00 4251.91,1787.00
             4253.99,1817.36 4258.08,1847.33 4265.12,1877.00
             4288.28,1974.70 4331.50,2055.45 4398.83,2130.00
             4398.83,2130.00 4427.00,2158.91 4427.00,2158.91
             4472.11,2200.94 4522.92,2235.63 4579.00,2261.31
             4627.04,2283.31 4677.66,2298.73 4730.00,2306.27
             4730.00,2306.27 4776.00,2311.09 4776.00,2311.09
             4776.00,2311.09 4788.00,2312.00 4788.00,2312.00
             4788.00,2312.00 4837.00,2312.00 4837.00,2312.00
             4837.00,2312.00 4849.00,2311.09 4849.00,2311.09
             4873.21,2309.43 4897.16,2306.57 4921.00,2301.80
             4986.92,2288.62 5054.39,2262.75 5111.00,2226.31
             5137.33,2209.35 5162.73,2190.84 5186.00,2169.83
             5186.00,2169.83 5221.00,2135.44 5221.00,2135.44
             5245.55,2114.84 5274.60,2101.18 5306.00,2095.00
             5312.01,2093.82 5323.05,2092.07 5329.00,2092.00
             5329.00,2092.00 5354.00,2092.00 5354.00,2092.00
             5374.12,2092.03 5400.53,2099.52 5419.00,2107.43
             5472.27,2130.22 5511.14,2178.14 5525.11,2234.00
             5530.66,2256.22 5530.03,2268.77 5530.00,2291.00
             5529.99,2299.53 5528.28,2309.60 5526.60,2318.00
             5517.51,2363.45 5490.45,2401.75 5457.00,2432.91
             5316.61,2563.71 5145.68,2648.13 4956.00,2677.58
             4930.11,2681.60 4904.10,2684.30 4878.00,2686.09
             4878.00,2686.09 4868.00,2687.00 4868.00,2687.00
             4868.00,2687.00 4848.00,2688.00 4848.00,2688.00
             4848.00,2688.00 4777.00,2688.00 4777.00,2688.00
             4777.00,2688.00 4757.00,2687.00 4757.00,2687.00
             4757.00,2687.00 4747.00,2686.09 4747.00,2686.09
             4747.00,2686.09 4681.00,2679.27 4681.00,2679.27
             4618.61,2670.28 4558.40,2655.83 4499.00,2634.69
             4374.29,2590.31 4264.88,2523.17 4168.00,2432.91
             4168.00,2432.91 4123.91,2388.00 4123.91,2388.00
             4011.07,2266.68 3932.14,2114.70 3896.42,1953.00
             3855.63,1768.27 3872.09,1566.76 3945.42,1392.00
             3990.87,1283.70 4049.93,1192.04 4130.09,1106.00
             4130.09,1106.00 4175.00,1061.91 4175.00,1061.91
             4270.45,973.13 4383.96,906.04 4507.00,863.34
             4566.43,842.72 4628.65,828.49 4691.00,820.28
             4691.00,820.28 4741.00,815.09 4741.00,815.09
             4741.00,815.09 4755.00,814.04 4755.00,814.04
             4755.00,814.04 4769.00,813.14 4769.00,813.14 Z
           M 11939.00,1938.00
           C 11952.89,1979.58 11976.38,2024.57 12000.67,2061.00
             12035.30,2112.94 12078.33,2159.23 12128.00,2197.12
             12285.43,2317.22 12495.51,2346.08 12679.00,2271.40
             12725.31,2252.55 12771.55,2226.31 12811.00,2195.58
             12811.00,2195.58 12854.00,2158.91 12854.00,2158.91
             12854.00,2158.91 12865.04,2147.04 12865.04,2147.04
             12871.53,2140.54 12884.31,2130.28 12892.00,2125.03
             12917.21,2107.81 12956.22,2093.05 12987.00,2093.00
             12987.00,2093.00 13012.00,2093.00 13012.00,2093.00
             13022.88,2093.13 13040.39,2096.84 13051.00,2099.86
             13103.80,2114.88 13148.89,2153.32 13170.57,2204.00
             13178.48,2222.47 13185.97,2248.88 13186.00,2269.00
             13186.00,2269.00 13186.00,2294.00 13186.00,2294.00
             13185.88,2304.30 13182.29,2321.94 13179.42,2332.00
             13164.38,2384.70 13134.77,2413.65 13095.00,2449.16
             13075.34,2466.72 13055.09,2483.55 13034.00,2499.37
             12909.09,2593.06 12766.29,2653.62 12612.00,2677.58
             12586.11,2681.60 12560.10,2684.30 12534.00,2686.09
             12534.00,2686.09 12524.00,2687.00 12524.00,2687.00
             12524.00,2687.00 12504.00,2688.00 12504.00,2688.00
             12504.00,2688.00 12433.00,2688.00 12433.00,2688.00
             12433.00,2688.00 12414.00,2687.00 12414.00,2687.00
             12414.00,2687.00 12403.00,2686.09 12403.00,2686.09
             12403.00,2686.09 12360.00,2682.16 12360.00,2682.16
             12300.93,2675.85 12242.68,2662.64 12186.00,2645.02
             12101.16,2618.66 12013.14,2576.38 11940.00,2525.98
             11856.62,2468.51 11788.71,2404.95 11726.42,2325.00
             11624.71,2194.46 11559.85,2035.87 11538.28,1872.00
             11538.28,1872.00 11532.91,1816.00 11532.91,1816.00
             11532.91,1816.00 11532.00,1806.00 11532.00,1806.00
             11532.00,1806.00 11531.00,1786.00 11531.00,1786.00
             11531.00,1786.00 11531.00,1715.00 11531.00,1715.00
             11531.00,1715.00 11532.00,1695.00 11532.00,1695.00
             11532.00,1695.00 11532.91,1685.00 11532.91,1685.00
             11532.91,1685.00 11539.87,1618.00 11539.87,1618.00
             11549.69,1547.48 11568.13,1478.50 11593.42,1412.00
             11612.30,1362.39 11636.50,1313.49 11663.80,1268.00
             11790.73,1056.44 11992.67,905.53 12231.00,842.88
             12276.27,830.98 12322.48,822.81 12369.00,817.84
             12369.00,817.84 12403.00,814.91 12403.00,814.91
             12403.00,814.91 12414.00,814.00 12414.00,814.00
             12414.00,814.00 12433.00,813.00 12433.00,813.00
             12433.00,813.00 12504.00,813.00 12504.00,813.00
             12504.00,813.00 12524.00,814.00 12524.00,814.00
             12524.00,814.00 12534.00,814.91 12534.00,814.91
             12534.00,814.91 12577.00,818.84 12577.00,818.84
             12636.07,825.15 12694.32,838.36 12751.00,855.98
             12893.11,900.15 13024.79,979.79 13130.00,1085.00
             13130.00,1085.00 13150.91,1106.00 13150.91,1106.00
             13231.07,1192.04 13290.13,1283.70 13335.58,1392.00
             13365.91,1464.30 13386.09,1541.47 13397.27,1619.00
             13397.27,1619.00 13404.09,1685.00 13404.09,1685.00
             13404.09,1685.00 13405.00,1695.00 13405.00,1695.00
             13405.00,1695.00 13406.00,1715.00 13406.00,1715.00
             13406.00,1715.00 13406.00,1762.00 13406.00,1762.00
             13405.98,1776.71 13401.34,1796.99 13396.67,1811.00
             13377.13,1869.60 13330.40,1914.24 13271.00,1931.14
             13259.11,1934.52 13242.29,1937.98 13230.00,1938.00
             13230.00,1938.00 13207.00,1938.00 13207.00,1938.00
             13207.00,1938.00 13190.00,1937.00 13190.00,1937.00
             13190.00,1937.00 12852.00,1937.00 12852.00,1937.00
             12852.00,1937.00 12664.00,1937.00 12664.00,1937.00
             12664.00,1937.00 12649.00,1938.00 12649.00,1938.00
             12649.00,1938.00 11939.00,1938.00 11939.00,1938.00 Z
           M 7216.00,1188.45
           C 7216.00,1188.45 7171.00,1190.17 7171.00,1190.17
             7131.81,1193.90 7094.84,1200.36 7057.00,1211.42
             6930.85,1248.31 6821.49,1329.77 6748.67,1439.00
             6733.82,1461.28 6719.49,1485.65 6708.31,1510.00
             6684.90,1560.97 6668.75,1611.38 6660.73,1667.00
             6660.73,1667.00 6655.91,1713.00 6655.91,1713.00
             6655.91,1713.00 6654.84,1725.00 6654.84,1725.00
             6654.84,1725.00 6654.84,1752.00 6654.84,1752.00
             6654.84,1752.00 6654.84,1776.00 6654.84,1776.00
             6654.84,1776.00 6655.91,1788.00 6655.91,1788.00
             6657.57,1812.21 6660.43,1836.16 6665.20,1860.00
             6681.48,1941.44 6714.17,2015.86 6763.15,2083.00
             6794.18,2125.53 6831.51,2163.25 6873.00,2195.58
             6920.24,2232.38 6973.68,2260.65 7030.00,2280.69
             7067.81,2294.15 7107.13,2303.39 7147.00,2308.15
             7147.00,2308.15 7179.00,2311.09 7179.00,2311.09
             7179.00,2311.09 7189.00,2312.16 7189.00,2312.16
             7189.00,2312.16 7218.00,2312.16 7218.00,2312.16
             7218.00,2312.16 7242.00,2312.16 7242.00,2312.16
             7242.00,2312.16 7254.00,2311.09 7254.00,2311.09
             7275.13,2309.64 7296.11,2307.34 7317.00,2303.58
             7420.10,2284.98 7519.11,2236.36 7596.00,2165.09
             7596.00,2165.09 7624.91,2137.00 7624.91,2137.00
             7664.98,2093.99 7699.08,2045.22 7724.22,1992.00
             7799.95,1831.71 7795.95,1647.38 7714.74,1490.00
             7688.26,1438.68 7652.76,1391.76 7612.00,1351.00
             7573.16,1312.16 7522.22,1274.87 7473.00,1250.25
             7419.05,1223.26 7364.72,1204.70 7305.00,1195.42
             7305.00,1195.42 7254.00,1189.91 7254.00,1189.91
             7254.00,1189.91 7242.00,1189.00 7242.00,1189.00
             7242.00,1189.00 7216.00,1188.45 7216.00,1188.45 Z
           M 9841.00,1188.45
           C 9841.00,1188.45 9796.00,1190.17 9796.00,1190.17
             9756.81,1193.90 9719.84,1200.36 9682.00,1211.42
             9555.85,1248.31 9446.49,1329.77 9373.67,1439.00
             9358.82,1461.28 9344.49,1485.65 9333.31,1510.00
             9309.90,1560.97 9293.75,1611.38 9285.73,1667.00
             9285.73,1667.00 9280.91,1713.00 9280.91,1713.00
             9280.91,1713.00 9279.84,1725.00 9279.84,1725.00
             9279.84,1725.00 9279.84,1752.00 9279.84,1752.00
             9279.84,1752.00 9279.84,1776.00 9279.84,1776.00
             9279.84,1776.00 9280.91,1788.00 9280.91,1788.00
             9282.57,1812.21 9285.43,1836.16 9290.20,1860.00
             9306.48,1941.44 9339.17,2015.86 9388.15,2083.00
             9419.18,2125.53 9456.51,2163.25 9498.00,2195.58
             9545.24,2232.38 9598.68,2260.65 9655.00,2280.69
             9692.81,2294.15 9732.13,2303.39 9772.00,2308.15
             9772.00,2308.15 9804.00,2311.09 9804.00,2311.09
             9804.00,2311.09 9814.00,2312.16 9814.00,2312.16
             9814.00,2312.16 9843.00,2312.16 9843.00,2312.16
             9843.00,2312.16 9867.00,2312.16 9867.00,2312.16
             9867.00,2312.16 9879.00,2311.09 9879.00,2311.09
             9900.13,2309.64 9921.11,2307.34 9942.00,2303.58
             10045.10,2284.98 10144.11,2236.36 10221.00,2165.09
             10221.00,2165.09 10249.91,2137.00 10249.91,2137.00
             10289.98,2093.99 10324.08,2045.22 10349.22,1992.00
             10424.95,1831.71 10420.95,1647.38 10339.74,1490.00
             10313.26,1438.68 10277.76,1391.76 10237.00,1351.00
             10198.16,1312.16 10147.22,1274.87 10098.00,1250.25
             10044.05,1223.26 9989.72,1204.70 9930.00,1195.42
             9930.00,1195.42 9879.00,1189.91 9879.00,1189.91
             9879.00,1189.91 9867.00,1189.00 9867.00,1189.00
             9867.00,1189.00 9841.00,1188.45 9841.00,1188.45 Z
           M 12998.00,1563.00
           C 12995.00,1549.85 12978.80,1514.11 12972.25,1501.00
             12948.65,1453.80 12919.00,1409.74 12883.09,1371.00
             12838.76,1323.18 12787.09,1282.23 12729.00,1252.26
             12673.49,1223.62 12613.89,1203.65 12552.00,1194.73
             12552.00,1194.73 12506.00,1189.91 12506.00,1189.91
             12506.00,1189.91 12494.00,1188.84 12494.00,1188.84
             12494.00,1188.84 12467.00,1188.84 12467.00,1188.84
             12467.00,1188.84 12458.00,1188.84 12458.00,1188.84
             12357.35,1189.16 12256.27,1220.32 12171.00,1273.42
             12121.32,1304.37 12077.74,1342.58 12039.73,1387.00
             12008.36,1423.66 11977.79,1470.87 11958.14,1515.00
             11952.79,1527.02 11941.74,1550.98 11939.00,1563.00
             11939.00,1563.00 12998.00,1563.00 12998.00,1563.00 Z
           M 2294.00,1564.14
           C 2268.15,1568.08 2247.38,1572.63 2224.00,1585.31
             2177.22,1610.66 2142.93,1654.04 2130.65,1706.00
             2127.92,1717.56 2126.74,1729.20 2125.91,1741.00
             2125.91,1741.00 2125.00,1753.00 2125.00,1753.00
             2125.00,1753.00 2125.00,2498.00 2125.00,2498.00
             2125.00,2498.00 2126.04,2510.00 2126.04,2510.00
             2126.04,2510.00 2126.04,2519.00 2126.04,2519.00
             2133.06,2591.05 2180.53,2650.92 2248.00,2676.05
             2265.15,2682.44 2282.79,2685.92 2301.00,2687.19
             2301.00,2687.19 2308.00,2687.19 2308.00,2687.19
             2308.00,2687.19 2322.00,2687.19 2322.00,2687.19
             2343.41,2686.97 2370.46,2679.78 2390.00,2671.14
             2450.62,2644.34 2491.82,2585.55 2498.17,2520.00
             2498.17,2520.00 2500.00,2498.00 2500.00,2498.00
             2500.00,2498.00 2500.00,1753.00 2500.00,1753.00
             2500.00,1753.00 2499.09,1741.00 2499.09,1741.00
             2497.08,1713.50 2492.19,1690.92 2479.73,1666.00
             2455.91,1618.36 2411.71,1582.41 2360.00,1569.47
             2337.13,1563.76 2322.15,1563.73 2299.00,1564.14
             2299.00,1564.14 2294.00,1564.14 2294.00,1564.14 Z" />
</svg>
